<?xml version="1.0" encoding="UTF-8" standalone="no"?>
<svg
   xmlns:osb="http://www.openswatchbook.org/uri/2009/osb"
   xmlns:dc="http://purl.org/dc/elements/1.1/"
   xmlns:cc="http://creativecommons.org/ns#"
   xmlns:rdf="http://www.w3.org/1999/02/22-rdf-syntax-ns#"
   xmlns:svg="http://www.w3.org/2000/svg"
   xmlns="http://www.w3.org/2000/svg"
   height="46.919918"
   width="46.931686"
   version="1.1"
   id="svg4320"
   viewBox="0 0 46.931685 46.919917">
  <metadata
     id="metadata4344">
    <rdf:RDF>
      <cc:Work
         rdf:about="">
        <dc:format>image/svg+xml</dc:format>
        <dc:type
           rdf:resource="http://purl.org/dc/dcmitype/StillImage" />
        <dc:title></dc:title>
      </cc:Work>
    </rdf:RDF>
  </metadata>
  <defs
     id="0">
    <linearGradient
       osb:paint="solid"
       id="linearGradient4351">
      <stop
         id="stop4353"
         offset="0"
         style="stop-color:#000000;stop-opacity:1;" />
    </linearGradient>
  </defs>
  <path
     id="path4588"
     d="m 28.144524,5 c -0.486646,-2e-7 -0.962474,0.044292 -1.361328,0.1035156 -0.199427,0.029612 -0.377375,0.063474 -0.535157,0.099609 -0.157781,0.036135 -0.253825,0.041955 -0.486328,0.1582031 -1.008307,0.5041391 -1.866002,1.3960953 -2.365234,2.3945316 -0.231572,0.4631349 -0.373047,0.8325183 -0.373047,1.2480473 -2e-6,0.415515 0.144249,0.782664 0.373047,1.2402344 0.210839,0.421666 0.371883,0.508486 0.599609,0.72461 0.227726,0.216123 0.494885,0.444907 0.769532,0.658203 0.245449,0.190622 0.4657,0.364699 0.642578,0.527344 0.172951,0.159035 0.209281,0.187117 0.205078,0.177734 0.0025,-0.02424 0.0061,4.74e-4 0.01758,0.01563 0.0012,0.0016 -0.01794,-0.01644 -0.01758,-0.01563 -8.62e-4,0.0085 -0.0039,-3.19e-4 -0.0039,0.03125 0,0.430338 -0.245057,0.815845 -0.705079,1.283203 -0.460855,0.468206 -0.828763,0.712891 -1.261718,0.712891 l -2.271485,0 -6.03125,0 a 1.0001,1.0001 0 0 0 -1,1 l 0,6.019531 0,2.251953 c -3e-6,0.430712 -0.24132,0.804773 -0.703125,1.271485 -0.460943,0.465838 -0.834146,0.713335 -1.259765,0.714843 0.0057,0.01209 -0.02274,0 -0.0039,0 0.0013,0 0.0026,5e-6 0.0039,0 -0.0024,-0.0052 0.0088,-0.0024 -0.02539,-0.02734 -0.06753,-0.04916 -0.108592,-0.08753 -0.183594,-0.169922 -0.150163,-0.164966 -0.329185,-0.402018 -0.529297,-0.66211 -0.215492,-0.280083 -0.444873,-0.549425 -0.662109,-0.777344 -0.217236,-0.227917 -0.30237,-0.385566 -0.722656,-0.595703 -0.4630217,-0.2315 -0.8413187,-0.371091 -1.2578127,-0.371093 -0.416494,0 -0.7925733,0.14434 -1.2499996,0.373046 -1.0048813,0.502435 -1.8741915,1.381226 -2.375,2.382813 -0.1097469,0.21949 -0.1226213,0.321133 -0.1601562,0.478516 -0.037535,0.157383 -0.070644,0.336407 -0.1015625,0.535156 C 5.047538,27.180705 5,27.655208 5,28.144535 c 0,0.489327 0.047652,0.965786 0.109375,1.365234 0.030861,0.199724 0.064115,0.378958 0.1015625,0.53711 0.037448,0.158152 0.048921,0.259956 0.1601562,0.482422 0.5009969,1.001967 1.3762537,1.863912 2.375,2.363281 0.4574278,0.228706 0.8335046,0.373047 1.2499996,0.373047 0.416496,0 0.794788,-0.141544 1.2578127,-0.373047 0.421646,-0.210824 0.50848,-0.369937 0.724609,-0.597656 0.216129,-0.22772 0.4449,-0.494894 0.658203,-0.769532 0.190625,-0.245441 0.364693,-0.465703 0.527344,-0.642578 0.159113,-0.173026 0.187172,-0.211025 0.177734,-0.207031 -0.02424,-0.0025 4.74e-4,-0.0061 0.01563,-0.01758 0.0016,-0.0012 -0.01644,0.01792 -0.01563,0.01758 0.0085,8.61e-4 -3.24e-4,0.0039 0.03125,0.0039 0.431498,3e-6 0.810552,0.244158 1.267579,0.701172 0.457029,0.457018 0.699218,0.836123 0.699218,1.267578 l 0,8.271485 a 1.0001,1.0001 0 0 0 1,1 l 25.591797,0 a 1.0001,1.0001 0 0 0 1,-1 l 0,-6.029297 0,-2.242188 c 0,-0.405082 -0.06545,-0.3902 -0.109375,-0.501953 -0.04392,-0.111752 -0.09674,-0.224213 -0.164062,-0.347656 -0.134647,-0.246887 -0.319447,-0.530393 -0.591797,-0.802734 -0.439955,-0.439943 -0.86446,-0.654367 -1.220703,-0.769532 a 1.0001,1.0001 0 0 0 -0.988282,0.21875 c -2.86e-4,2.66e-4 -0.05924,0.05914 -0.06055,0.06055 a 1.0001,1.0001 0 0 0 0,0.002 c -0.1873,0.20144 -0.361348,0.428247 -0.560547,0.681641 -0.427328,0.543588 -0.7749,0.996831 -1.207032,1.212891 -0.430124,0.215054 -0.722151,0.304686 -1.001953,0.304687 -0.279801,0 -0.573784,-0.08963 -1.003906,-0.304687 -0.860298,-0.430146 -1.71015,-1.262104 -2.138672,-2.119141 -0.221876,-0.443741 -0.304686,-1.204043 -0.304687,-2.128906 -1e-6,-0.924863 0.08441,-1.698133 0.304687,-2.138672 0.429657,-0.859292 1.279343,-1.709013 2.138672,-2.138672 0.430121,-0.215055 0.724107,-0.304688 1.003906,-0.304688 0.279798,10e-7 0.571824,0.08963 1.001953,0.304688 0.427676,0.213833 0.773533,0.672419 1.205079,1.226562 0.203825,0.261731 0.381672,0.491375 0.558593,0.683594 a 1.0001,1.0001 0 0 0 0.002,0.002 c 0.03327,0.03593 0.04129,0.04288 0.01563,0.01563 a 1.0001,1.0001 0 0 0 1.041016,0.263672 c 0.330008,-0.108937 0.770537,-0.318531 1.216797,-0.769531 0.275284,-0.278208 0.461975,-0.56716 0.595703,-0.81836 0.06686,-0.125599 0.1191,-0.241371 0.162109,-0.353515 0.04301,-0.112144 0.105469,-0.09265 0.105469,-0.496094 l 0,-2.251953 0,-6.019531 a 1.0001,1.0001 0 0 0 -1.013672,-0.986328 l 0.01367,-0.01367 -6.03125,0 -2.261719,0 c -0.432956,0 -0.800863,-0.244685 -1.261718,-0.712891 -0.460022,-0.46736 -0.705079,-0.852869 -0.705078,-1.283203 0,-0.03344 -9.8e-4,-0.02538 -0.002,-0.0332 2.88e-4,-7.96e-4 -0.02091,0.0194 -0.01953,0.01758 0.01124,-0.01483 0.01695,-0.0383 0.01953,-0.01758 -0.0029,0.0081 0.03193,-0.01837 0.203125,-0.175781 0.176874,-0.162642 0.397124,-0.336718 0.642579,-0.527344 0.274643,-0.213296 0.541805,-0.44208 0.769531,-0.658203 0.227726,-0.216123 0.388771,-0.302946 0.599609,-0.72461 0.231565,-0.4631284 0.373047,-0.8344604 0.373047,-1.2500004 2e-6,-0.415551 -0.144267,-0.7807295 -0.373047,-1.2382813 C 32.385457,6.7573295 31.527824,5.8654668 30.519524,5.3613281 30.292713,5.2479304 30.192725,5.2395324 30.035149,5.203125 29.877572,5.1667175 29.700308,5.1330787 29.501946,5.1035156 29.105221,5.0443894 28.630452,5 28.144524,5 Z"
     style="fill:#ffffff;fill-opacity:1;fill-rule:evenodd;stroke:none;stroke-width:2;stroke-linejoin:round;stroke-miterlimit:39.40000153;stroke-dasharray:none;stroke-opacity:1" />
</svg>
