/* XPM */
static char *sc_cube_bw[] = {
/* columns rows colors chars-per-pixel */
"32 32 231 2",
"   c black",
".  c #010101",
"X  c gray1",
"o  c gray2",
"O  c gray3",
"+  c #090909",
"@  c gray4",
"#  c #0B0B0B",
"$  c #0C0C0C",
"%  c gray5",
"&  c #0E0E0E",
"*  c gray6",
"=  c #101010",
"-  c #111111",
";  c gray7",
":  c #131313",
">  c gray8",
",  c #151515",
"<  c #161616",
"1  c gray9",
"2  c #181818",
"3  c #191919",
"4  c gray10",
"5  c #1B1B1B",
"6  c gray11",
"7  c #1D1D1D",
"8  c #1E1E1E",
"9  c gray12",
"0  c #202020",
"q  c gray13",
"w  c #222222",
"e  c #232323",
"r  c gray14",
"t  c #252525",
"y  c gray15",
"u  c #272727",
"i  c #282828",
"p  c gray16",
"a  c #2A2A2A",
"s  c gray17",
"d  c #2C2C2C",
"f  c #2D2D2D",
"g  c gray18",
"h  c #2F2F2F",
"j  c gray19",
"k  c #323232",
"l  c gray20",
"z  c #343434",
"x  c #353535",
"c  c #373737",
"v  c gray22",
"b  c #393939",
"n  c #3A3A3A",
"m  c gray23",
"M  c #3C3C3C",
"N  c gray24",
"B  c #3E3E3E",
"V  c #3F3F3F",
"C  c gray25",
"Z  c #414141",
"A  c gray26",
"S  c #434343",
"D  c #444444",
"F  c gray27",
"G  c #464646",
"H  c gray28",
"J  c #484848",
"K  c #494949",
"L  c gray29",
"P  c #4B4B4B",
"I  c #4C4C4C",
"U  c gray30",
"Y  c #4E4E4E",
"T  c gray31",
"R  c #505050",
"E  c #515151",
"W  c gray32",
"Q  c #535353",
"!  c gray33",
"~  c #555555",
"^  c #565656",
"/  c gray34",
"(  c #585858",
")  c gray35",
"_  c #5A5A5A",
"`  c #5B5B5B",
"'  c gray36",
"]  c #5D5D5D",
"[  c gray37",
"{  c #5F5F5F",
"}  c #606060",
"|  c gray38",
" . c #626262",
".. c gray39",
"X. c #646464",
"o. c #656565",
"O. c gray40",
"+. c #676767",
"@. c #686868",
"#. c DimGray",
"$. c #6A6A6A",
"%. c gray42",
"&. c #6C6C6C",
"*. c #6D6D6D",
"=. c gray43",
"-. c #6F6F6F",
";. c gray44",
":. c #717171",
">. c #727272",
",. c gray45",
"<. c #747474",
"1. c gray46",
"2. c #767676",
"3. c #777777",
"4. c gray47",
"5. c gray48",
"6. c #7B7B7B",
"7. c #7C7C7C",
"8. c gray49",
"9. c #7E7E7E",
"0. c #7F7F7F",
"q. c #808080",
"w. c #818181",
"e. c gray51",
"r. c #838383",
"t. c #848484",
"y. c gray52",
"u. c #868686",
"i. c gray53",
"p. c #888888",
"a. c #898989",
"s. c gray54",
"d. c #8B8B8B",
"f. c gray55",
"g. c #8D8D8D",
"h. c #8E8E8E",
"j. c gray56",
"k. c #909090",
"l. c gray57",
"z. c #929292",
"x. c #939393",
"c. c gray59",
"v. c #979797",
"b. c #989898",
"n. c gray60",
"m. c #9A9A9A",
"M. c #9B9B9B",
"N. c gray61",
"B. c #9D9D9D",
"V. c gray62",
"C. c #9F9F9F",
"Z. c #A0A0A0",
"A. c gray63",
"S. c #A2A2A2",
"D. c gray64",
"F. c #A4A4A4",
"G. c #A5A5A5",
"H. c gray65",
"J. c #A7A7A7",
"K. c gray66",
"L. c #A9A9A9",
"P. c #AAAAAA",
"I. c gray67",
"U. c #ACACAC",
"Y. c gray68",
"T. c #AEAEAE",
"R. c gray69",
"E. c #B1B1B1",
"W. c #B2B2B2",
"Q. c gray70",
"!. c #B4B4B4",
"~. c gray71",
"^. c #B6B6B6",
"/. c #B7B7B7",
"(. c gray72",
"). c #B9B9B9",
"_. c gray73",
"`. c #BBBBBB",
"'. c #BCBCBC",
"]. c gray",
"[. c gray75",
"{. c #C0C0C0",
"}. c #C1C1C1",
"|. c gray76",
" X c #C3C3C3",
".X c gray77",
"XX c #C5C5C5",
"oX c #C6C6C6",
"OX c gray78",
"+X c #C8C8C8",
"@X c gray79",
"#X c #CACACA",
"$X c #CBCBCB",
"%X c gray80",
"&X c #CECECE",
"*X c gray81",
"=X c #D0D0D0",
"-X c gray82",
";X c #D2D2D2",
":X c LightGray",
">X c gray83",
",X c gray84",
"<X c #D7D7D7",
"1X c #D8D8D8",
"2X c gray85",
"3X c #DADADA",
"4X c gainsboro",
"5X c gray87",
"6X c #DFDFDF",
"7X c gray88",
"8X c #E1E1E1",
"9X c #E2E2E2",
"0X c gray89",
"qX c gray90",
"wX c #E7E7E7",
"eX c #E9E9E9",
"rX c gray92",
"tX c #ECECEC",
"yX c #EEEEEE",
"uX c #EFEFEF",
"iX c gray94",
"pX c #F1F1F1",
"aX c #F4F4F4",
"sX c gray96",
"dX c #F8F8F8",
"fX c #F9F9F9",
"gX c gray98",
"hX c #FBFBFB",
"jX c gray99",
"kX c #FDFDFD",
"lX c None",
/* pixels */
"lXlXlXlXlXlXlXlXlXlXlXlXlXlXlXlXlXlXlXlXlXlXlXlXlXlXlXlXlXlXlXlX",
"lXlXlXlXlXlXlXlXlXlXlXlXlXlX5XeXiXyXsXjXlXlXlXlXlXlXlXlXlXlXlXlX",
"lXlXlXlXlXlXlXlXlXlX_.&X3X4X$XT.s.3.M.=XtXkXlXlXlXlXlXlXlXlXlXlX",
"lXlXlXlXlXp.n.!.OX1X3X XZ.s.f.m.Q._.b.w.k.'.9XjXlXlXlXlXlXlXlXlX",
"lXlXr.%.W.4XrX3X!.N.f.a.m.Q.[.].Q.^. X}.I.g.p.J.<XhXlXlXlXlXlXlX",
"lXp.f.d.5.Z.,X4X(.k.d.V.].]./.L.L.J.A.F.^.+X[.n.8.x.$XfXlXlXlXlX",
"lXt.t.t.f.a.3.x..X1X.XD.z.m.L.Q.~.J.M.m.F._.:X,X'.7.:.7.%XjXlXlX",
"lX7.w.X.>.7.f.p.<.y.R.-X-X^.m.g.k.B.^.+X%X}.D.w.4.a.K.>XaXhXjXlX",
"lX<.q.3 f ! { 1.f.i.>.4.B.%X5X$X;X2X{.M.r.8.g.~.4XuXgXhX6XXXpXlX",
"lX*.9.q 7 < i A U =.f.y.-.%.d.E.z.2.1.b.}.7XsXgX8X!.w.F 8 ( qXlX",
"lXO.8.i r s i 2 w j m +.f.t.%.6.K.=XiXdXwX+XF.7.[ H l i w ! <XlX",
"lX[ 6.g x } J C k 2 5 8 p o.c.dXpX0X&X^.N.2.W c t f E ] a T #XlX",
"lX^ 5.x k  .X. .^ ! M 3 > 8 k.tX<XB.&.A u f F ..s.T.{.b.l L `.lX",
"lXT 4.M h ] ( ~  .O.o.%.w 7 a.qXw.a k A / =.u.Z.E.).'.B.M G T.lX",
"lXG 3.A d ) H S Z J } ;.f 6 q.5Xs.x I 7.M.Q.(.K.j.d.!.S.F Z A.lX",
"lXB 2.K a ~ L N n c G *.z 5 4.,Xl.N <.!.P.m.r.-.| :.I.K.Y N x.lX",
"lXc <.T i E T S J n S $.m 4 -.*Xb.D =.L.v.4.$.+.X.&.S.Y./ v u.lX",
"lXf ,.^ t I ! F P C V @.Z 3 @.+XC.P +.S.d.=.4.q.&.O.n.E.} l 4.lX",
"lXy >.] e K ( Q R F m o.H 2 { }.H.W | m.l.3.9.p.<.} k.^.#.h $.lX",
"lX7 ;.X.0 b ! R Q P c  .Y 1 ^ `.Y.) _ x.v.q.e.k.8.` i.`.>.a ' lX",
"lX> =.$.9 i p v C m l { ! < Y Q.!.} ! f.B.v.b.h.>.^ 9.{.7.t T lX",
"lX$ *.6...M z j i j h ] ` , F U.`.@.Y t.Z.x.w.*._ Y 2.oXy.q Z lX",
"lXo L 4.<.5.+.U H v i _ | > N G.|.-.J <.0.X.Y G ! ;.A.#Xh.6 z lX",
"lXlX% > H X.#.4.&.[ ) X.@.: z V.#X2.Z G L ( *.s.A./.@X>Xn.1 t lX",
"lXlXlX% $ ; m T [ 3.>.;.=.; d v.=X9.B I X.a.U.OX3X;XT.8.M > 2 lX",
"lXlXlXlX. # # * g n ! 2.2.- r k.<XA.z.].2X>X'.V.<.R b e : + $ lX",
"lXlXlXlXlXlX  # $ % 9 y J * 5 a.6X2X-X{.L.k.-.G u & + $ # lXlXlX",
"lXlXlXlXlXlXlXlX. $ # @ ; $ : e.0X=XV.@.c = + @ # $ o     lXlXlX",
"lXlXlXlXlXlXlXlXlXlX. % $ O $ B S - + # # # X     lXlXlXlXlXlXlX",
"lXlXlXlXlXlXlXlXlXlXlXlX. % * $ # @ .     lXlXlXlXlXlXlXlXlXlXlX",
"lXlXlXlXlXlXlXlXlXlXlXlXlXlX      lXlXlXlXlXlXlXlXlXlXlXlXlXlXlX",
"lXlXlXlXlXlXlXlXlXlXlXlXlXlXlXlXlXlXlXlXlXlXlXlXlXlXlXlXlXlXlXlX"
};
